<?xml version="1.0" encoding="UTF-8" standalone="no"?>
<!-- Created with Inkscape (http://www.inkscape.org/) -->

<svg
   width="299.45001"
   height="53.700001"
   viewBox="0 0 79.229502 14.208195"
   version="1.1"
   id="svg4527"
   inkscape:version="1.2 (dc2aedaf03, 2022-05-15)"
   sodipodi:docname="logo_template.svg"
   inkscape:export-filename="logo.png"
   inkscape:export-xdpi="96"
   inkscape:export-ydpi="96"
   xmlns:inkscape="http://www.inkscape.org/namespaces/inkscape"
   xmlns:sodipodi="http://sodipodi.sourceforge.net/DTD/sodipodi-0.dtd"
   xmlns="http://www.w3.org/2000/svg"
   xmlns:svg="http://www.w3.org/2000/svg">
  <sodipodi:namedview
     id="namedview4529"
     pagecolor="#ffffff"
     bordercolor="#000000"
     borderopacity="0.25"
     inkscape:showpageshadow="2"
     inkscape:pageopacity="0.0"
     inkscape:pagecheckerboard="0"
     inkscape:deskcolor="#d1d1d1"
     inkscape:document-units="mm"
     showgrid="false"
     inkscape:zoom="2.8284271"
     inkscape:cx="70.710679"
     inkscape:cy="6.3639611"
     inkscape:window-width="1920"
     inkscape:window-height="1009"
     inkscape:window-x="3832"
     inkscape:window-y="10"
     inkscape:window-maximized="1"
     inkscape:current-layer="text4723" />
  <defs
     id="defs4524" />
  <g
     inkscape:label="Layer 1"
     inkscape:groupmode="layer"
     id="layer1">
    <g
       aria-label="Zauberputz"
       id="text4723"
       style="font-size:15.2715px;fill:#1237ae;stroke:#1237ae;stroke-width:0">
      <path
         d="m 0.8326907,0.89574657 q -0.0152715,-0.061086 -0.0152715,-0.152715 0,-0.29015849 0.274887,-0.29015849 H 7.903395 q 0.91629,0 0.91629,0.50395949 0,0.25961553 -0.1679865,0.73303193 Q 8.5600695,1.94948 8.1324675,2.5756115 7.659051,3.262829 6.0250006,5.523011 l -0.824661,1.2064484 q -0.4428735,0.6566745 -0.61086,0.946833 -0.152715,0.274887 -0.244344,0.519231 -0.076358,0.244344 -0.1069005,0.4428735 -0.030543,0.183258 -0.030543,0.30543 0,0.274887 0.1985295,0.4428735 0.1985295,0.1679865 0.5650455,0.1679865 0.122172,0 0.335973,-0.030543 0.213801,-0.030543 0.6566745,-0.1985295 0.458145,-0.1985295 0.702489,-0.397059 L 7.3383495,8.4245959 q 0.152715,0 0.3817875,0.183258 l 0.335973,0.824661 q 0.5650455,1.3438921 0.5650455,1.7409511 0,0.274887 -0.274887,0.274887 H 0.7257902 q -0.50395948,0 -0.50395948,-0.595589 0,-0.41233 0.22907249,-1.3133486 Q 0.52726071,9.2187139 0.61888971,9.0049129 0.7716047,8.7147544 0.8326907,8.5773109 L 0.9854057,8.2566094 1.2297497,7.7984644 1.5504512,7.1723329 1.6420802,7.0043464 2.6347277,5.4771965 2.8485287,5.1717665 3.1386871,4.728893 3.4899316,4.1943905 3.6273751,3.965318 4.1313346,3.232286 q 0.076358,-0.122172 0.076358,-0.274887 0,-0.2901585 -0.244344,-0.3512445 -0.244344,-0.076358 -0.3817875,-0.076358 -0.183258,0 -0.6872174,0.152715 L 2.6194562,2.804684 1.9169672,3.201743 Q 1.8558812,3.262829 1.7337092,3.1253855 1.6115372,2.9726705 1.4130077,2.5145255 L 1.3061072,2.193824 1.0312202,1.4607921 Z"
         style="font-weight:100;font-family:Emmett;-inkscape-font-specification:'Emmett, Thin'"
         id="path439" />
      <path
         d="m 16.088908,11.448353 h -3.0543 q -0.183258,0 -0.366516,0 -0.274887,-0.04581 -0.427602,-0.06109 l -0.412331,-0.06109 Q 11.095127,11.173466 10.698068,10.944393 10.316281,10.700049 9.9803078,10.19609 9.6596063,9.6921304 9.6596063,8.9285554 q 0,-0.3512445 0.061086,-0.641403 0.1374435,-0.7177605 0.7635747,-1.3286205 0.687218,-0.6566745 1.802037,-1.038462 0.458145,-0.1374435 0.595589,-0.152715 0.290158,-0.061086 0.320701,-0.061086 0.07636,-0.015271 0.137444,-0.045814 l 0.1069,-0.213801 0.122172,-0.274887 q 0.01527,-0.061086 -0.07636,-0.2290725 -0.09163,-0.1679865 -0.19853,-0.3207015 -0.198529,-0.274887 -0.702489,-0.274887 -0.335973,0 -0.748303,0.152715 -0.335973,0.152715 -0.565046,0.488688 -0.213801,0.3207015 -0.381787,0.3207015 -0.167987,0 -0.595589,-0.335973 -0.4123302,-0.3512445 -0.4123302,-0.8399325 0,-0.549774 0.5039592,-0.9926475 0.397059,-0.3512445 1.22172,-0.5955885 0.244344,-0.076358 0.519231,-0.1069005 0.274887,-0.030543 0.61086,-0.030543 3.66516,0 3.66516,3.329187 l 0.03054,0.6108599 v 0.091629 1.130091 0.122172 l 0.01527,1.069005 v 0.427602 0.7483034 l -0.01527,1.2064487 q -0.07636,0.30543 -0.351244,0.30543 z M 12.65282,8.8674694 q 0.07636,0.366516 0.244344,0.549774 0.183258,0.1679865 0.412331,0.1679865 0.30543,0 0.320701,-0.213801 0.03054,-0.213801 0.04582,-0.366516 0.03054,-0.152715 0.03054,-0.3512445 0,-0.274887 0,-0.3817875 0,-0.366516 -0.07636,-0.5345025 -0.07636,-0.1679865 -0.351244,-0.1679865 -0.106901,0 -0.244344,0.076357 -0.122172,0.061086 -0.274887,0.3207015 -0.137444,0.244344 -0.137444,0.5955885 0,0.091629 0.03054,0.30543 z"
         style="font-weight:100;font-family:Emmett;-inkscape-font-specification:'Emmett, Thin'"
         id="path441" />
      <path
         d="m 18.150563,3.873689 q 0.07636,-0.671946 0.213801,-0.946833 0.137444,-0.274887 0.274887,-0.274887 h 2.489254 q 0.137444,0 0.137444,0.3207015 0,0.1069005 -0.01527,0.30543 -0.01527,0.183258 -0.06109,0.427602 l -0.09163,0.5345025 -0.137443,0.946833 q -0.09163,0.7635749 -0.09163,1.3897064 0,1.374435 0.07636,1.710408 0.07636,0.335973 0.106901,0.4123305 0.01527,0.061086 0.1069,0.2290725 0.106901,0.152715 0.229073,0.1985295 0.137443,0.045815 0.244344,0.045815 0.167986,0 0.259615,-0.076358 0.183258,-0.122172 0.290159,-0.3512445 0.1069,-0.2290725 0.229072,-0.9010185 l 0.03054,-0.2596155 q 0.04582,-0.397059 0.04582,-0.6566745 0,-0.1679865 -0.01527,-0.3512445 0,-0.1985295 0,-0.427602 0,-0.091629 0,-0.152715 l -0.04581,-0.6414029 -0.01527,-0.152715 -0.03054,-0.274887 -0.06109,-0.5039595 -0.1069,-0.6872175 -0.01527,-0.091629 q -0.09163,-0.458145 -0.09163,-0.671946 0,-0.3207015 0.19853,-0.3207015 h 2.535069 q 0.122172,0 0.198529,0.213801 0.09163,0.213801 0.167987,0.9010185 l 0.09163,0.946833 0.03054,0.946833 0.01527,0.5039594 0.01527,0.458145 v 0.549774 0.427602 l -0.01527,0.519231 -0.03054,0.61086 -0.01527,0.335973 -0.04582,0.763575 q 0,0.9010181 -0.137443,1.2675341 -0.122172,0.351245 -0.30543,0.351245 h -2.046381 q -0.122172,0 -0.244344,-0.183258 l -0.01527,-0.335973 -0.07636,-0.397059 q -0.183258,0.198529 -0.381788,0.351244 l -0.381787,0.229073 q -0.50396,0.290158 -0.717761,0.366516 -0.213801,0.07636 -0.549773,0.07636 -1.038462,0 -1.557693,-0.641403 -0.519231,-0.656674 -0.748304,-2.3670821 -0.04581,-0.366516 -0.07636,-0.61086 -0.01527,-0.2596155 -0.01527,-0.8399325 l -0.01527,-0.733032 v -0.335973 l 0.04581,-1.0842764 z"
         style="font-weight:100;font-family:Emmett;-inkscape-font-specification:'Emmett, Thin'"
         id="path443" />
      <path
         d="m 27.084392,0.91101807 q 0.06109,-0.50395949 0.152715,-0.70248899 0.09163,-0.19852949 0.213801,-0.19852949 h 2.397625 q 0.167987,0 0.259616,0.122172 0.09163,0.12217199 0.09163,0.39705899 0,0.21380099 -0.06109,0.51923102 -0.06109,0.2901585 -0.213801,0.7024889 -0.04581,0.1069005 -0.07636,0.335973 0,0.7788465 0.397059,0.7788465 0.213801,0 0.519231,-0.1069005 l 0.30543,-0.091629 q 0.03054,-0.015272 0.473417,-0.015272 0.381787,0 0.519231,0.045815 0.152715,0.045815 0.61086,0.2901585 0.458145,0.244344 0.870475,0.9010185 0.412331,0.6566745 0.61086,1.649322 0.106901,0.4886879 0.106901,1.1148194 0,0.3207015 -0.04581,0.702489 -0.04581,0.3817875 -0.122172,0.733032 -0.229072,1.007919 -0.549774,1.588236 -0.30543,0.5803171 -0.839932,1.0079191 l -0.381788,0.259615 q -0.41233,0.244344 -0.794118,0.381788 -0.381787,0.122172 -0.626131,0.122172 H 27.57308 q -0.320701,0 -0.473416,-0.626132 -0.152715,-0.641403 -0.152715,-2.6572406 l -0.01527,-0.763575 q 0,-0.885747 -0.01527,-1.435521 -0.01527,-0.5497739 -0.03054,-1.0690049 0,-1.3286205 0.01527,-2.046381 0.03054,-0.733032 0.07636,-1.160634 l 0.01527,-0.061086 z m 2.703055,5.17703833 0.03054,0.946833 0.01527,0.1985295 q 0,0.549774 0.01527,0.7483035 0.01527,0.183258 0.07636,0.3817875 0.07636,0.1985295 0.213801,0.2901585 0.137443,0.091629 0.335973,0.091629 0.122172,0 0.213801,-0.045815 0.244344,-0.122172 0.366516,-0.3512445 0.137443,-0.244344 0.244344,-0.8093895 0.03054,-0.152715 0.03054,-0.519231 0,-0.366516 0,-0.61086 L 31.314597,6.0422419 31.192425,5.30921 Q 31.070253,4.912151 30.963353,4.7441645 30.856452,4.5609065 30.673194,4.454006 q -0.09163,-0.045814 -0.213801,-0.045814 -0.229072,0 -0.41233,0.152715 -0.167987,0.1374435 -0.19853,0.335973 -0.03054,0.1985295 -0.04581,0.3817875 -0.01527,0.183258 -0.01527,0.397059 0,0.2596154 0,0.4123304 z"
         style="font-weight:100;font-family:Emmett;-inkscape-font-specification:'Emmett, Thin'"
         id="path445" />
      <path
         d="m 40.46224,9.2187139 q 0.702489,-0.213801 1.084276,-0.549774 0.397059,-0.335973 0.549774,-0.8399325 0.397059,0.519231 0.397059,1.130091 0,0.580317 -0.397059,1.2980776 -0.290158,0.534502 -0.901018,0.91629 -0.61086,0.366516 -1.496607,0.473416 -0.320701,0.04582 -0.656674,0.04582 -0.19853,0 -0.30543,-0.01527 -1.435521,0 -2.321268,-0.870475 -0.885747,-0.8857471 -1.206449,-2.5961551 -0.09163,-0.397059 -0.09163,-0.794118 0,-2.0463809 0.748304,-3.2528294 0.748303,-1.2064485 2.13801,-1.618779 0.595588,-0.183258 1.191177,-0.183258 1.450792,0 2.290724,0.6872175 0.839933,0.6872175 0.839933,1.710408 0,0.213801 -0.01527,0.335973 -0.01527,0.122172 -0.09163,0.366516 L 42.09629,5.7978979 q -0.274887,0.61086 -0.794118,0.9621045 -0.51923,0.3512445 -1.985294,0.885747 l -0.351245,0.1069005 q -0.06109,0.030543 -0.122172,0.061086 -0.06109,0.030543 -0.229072,0.1679865 l -0.167987,0.1679865 q -0.152715,0.1985295 -0.152715,0.4428735 0,0.427602 0.412331,0.61086 0.320701,0.1374435 1.053733,0.1374435 0.30543,0 0.702489,-0.122172 z M 37.988257,5.2633955 q -0.03054,0.213801 -0.03054,0.274887 0,0.4734164 0.351245,0.4123304 0.259615,-0.030543 0.488688,-0.1374435 Q 39.118348,5.6604545 39.286335,5.5382825 39.469593,5.400839 39.54595,5.248124 39.683394,4.9885085 39.652851,4.759436 39.622308,4.545635 39.423778,4.4081915 39.24052,4.270748 38.980905,4.3165625 38.62966,4.39292 38.339502,4.667807 38.064615,4.942694 37.988257,5.2633955 Z"
         style="font-weight:100;font-family:Emmett;-inkscape-font-specification:'Emmett, Thin'"
         id="path447" />
      <path
         d="m 43.913613,2.713055 q 0.09163,-0.061086 0.183258,-0.061086 h 2.290725 q 0.07636,0.061086 0.122172,0.122172 0.06109,0.122172 0.137444,0.427602 0.01527,0.122172 0.1069,0.1679865 0.09163,0.045815 0.167987,0.015271 0.122172,-0.076357 0.244344,-0.1985295 0.137443,-0.1374435 0.41233,-0.4734165 0.09163,-0.122172 0.213801,-0.183258 0.137444,-0.076357 0.290159,-0.091629 0.167986,-0.030543 0.290158,-0.030543 0.549774,0 0.962104,0.4123305 0.290159,0.2596155 0.412331,0.7177605 0.04581,0.213801 0.04581,0.4123305 0,0.702489 -0.442873,1.099548 -0.427602,0.3817875 -0.687217,0.3817875 -0.07636,0 -0.137444,-0.061086 L 48.449249,5.0495945 Q 48.327077,4.515092 47.899475,4.515092 q -0.244344,0 -0.519231,0.183258 -0.412331,0.274887 -0.534503,0.9621045 -0.1069,0.6872174 -0.1069,2.7183269 l 0.01527,0.1679865 0.397059,2.6725121 q 0.06109,0.229073 -0.167986,0.229073 h -2.74887 q -0.07636,0 -0.122172,-0.106901 -0.04582,-0.1069 -0.09163,-0.519231 l -0.06109,-0.580317 -0.01527,-0.09163 -0.07636,-0.9621041 -0.03054,-0.488688 -0.03054,-0.458145 -0.04582,-0.9926475 q 0,-0.946833 -0.03054,-1.8478514 -0.01527,-0.91629 -0.01527,-1.0537335 0,-1.0842765 0.03054,-1.2980775 0.03054,-0.2290725 0.167986,-0.335973 z"
         style="font-weight:100;font-family:Emmett;-inkscape-font-specification:'Emmett, Thin'"
         id="path449" />
      <path
         d="m 50.312362,7.0654324 q 0,-2.7641414 0.122172,-3.5888024 0.122172,-0.824661 0.458145,-0.824661 h 4.123305 q 0.274887,0 0.549774,0.122172 0.290159,0.1069005 0.687218,0.4428735 0.41233,0.3207015 0.809389,1.4202495 0.50396,1.4049779 0.50396,3.0390284 0,0.6872175 -0.244344,1.3286205 -0.167987,0.4428735 -0.534503,1.0231901 -0.519231,0.778847 -1.084276,1.145363 -0.549774,0.351244 -1.160634,0.351244 -0.19853,0 -0.30543,-0.01527 l -0.259616,-0.06109 q -0.06109,-0.03054 -0.1069,-0.03054 -0.07636,0 -0.09163,0 -0.19853,0 -0.19853,0.320701 0,0.06109 0.03054,0.366516 l 0.04581,0.351245 0.122172,0.71776 q 0.1069,0.412331 0.1069,0.656675 0,0.366516 -0.366516,0.366516 h -2.428168 q -0.259616,0 -0.427602,-0.656675 -0.244344,-0.992647 -0.244344,-3.420816 -0.04581,-1.0384616 -0.07636,-1.8478511 -0.03054,-0.8093895 -0.03054,-1.2064485 z m 2.886314,-0.427602 0.01527,2.4892545 q 0,0.1069005 0.03054,0.183258 0.03054,0.091629 0.07636,0.183258 0.122172,0.366516 0.473416,0.2901585 0.229073,-0.061086 0.397059,-0.2901585 0.167987,-0.244344 0.351245,-0.8093895 0.09163,-0.30543 0.122172,-0.488688 0.04581,-0.1985295 0.04581,-0.549774 0,-1.8936659 -0.351244,-2.2449104 -0.213801,-0.213801 -0.473417,-0.213801 -0.259615,0 -0.442873,0.213801 -0.122172,0.1679865 -0.183258,0.4276019 -0.06109,0.2596155 -0.06109,0.8093895 z"
         style="font-weight:100;font-family:Emmett;-inkscape-font-specification:'Emmett, Thin'"
         id="path451" />
      <path
         d="m 59.032395,3.873689 q 0.07636,-0.671946 0.213801,-0.946833 0.137444,-0.274887 0.274887,-0.274887 h 2.489255 q 0.137443,0 0.137443,0.3207015 0,0.1069005 -0.01527,0.30543 -0.01527,0.183258 -0.06109,0.427602 l -0.09163,0.5345025 -0.137444,0.946833 q -0.09163,0.7635749 -0.09163,1.3897064 0,1.374435 0.07636,1.710408 0.07636,0.335973 0.1069,0.4123305 0.01527,0.061086 0.106901,0.2290725 0.1069,0.152715 0.229072,0.1985295 0.137444,0.045815 0.244344,0.045815 0.167987,0 0.259616,-0.076358 0.183258,-0.122172 0.290158,-0.3512445 0.106901,-0.2290725 0.229073,-0.9010185 l 0.03054,-0.2596155 q 0.04581,-0.397059 0.04581,-0.6566745 0,-0.1679865 -0.01527,-0.3512445 0,-0.1985295 0,-0.427602 0,-0.091629 0,-0.152715 l -0.04582,-0.6414029 -0.01527,-0.152715 -0.03054,-0.274887 -0.06109,-0.5039595 -0.106901,-0.6872175 -0.01527,-0.091629 q -0.09163,-0.458145 -0.09163,-0.671946 0,-0.3207015 0.198529,-0.3207015 h 2.535069 q 0.122172,0 0.19853,0.213801 0.09163,0.213801 0.167986,0.9010185 l 0.09163,0.946833 0.03054,0.946833 0.01527,0.5039594 0.01527,0.458145 v 0.549774 0.427602 l -0.01527,0.519231 -0.03054,0.61086 -0.01527,0.335973 -0.04581,0.763575 q 0,0.9010181 -0.137444,1.2675341 -0.122172,0.351245 -0.30543,0.351245 h -2.046381 q -0.122172,0 -0.244344,-0.183258 l -0.01527,-0.335973 -0.07636,-0.397059 q -0.183258,0.198529 -0.381787,0.351244 L 62.54484,11.11238 q -0.503959,0.290158 -0.71776,0.366516 -0.213801,0.07636 -0.549774,0.07636 -1.038462,0 -1.557693,-0.641403 -0.519231,-0.656674 -0.748304,-2.3670821 -0.04581,-0.366516 -0.07636,-0.61086 -0.01527,-0.2596155 -0.01527,-0.8399325 l -0.01527,-0.733032 v -0.335973 l 0.04581,-1.0842764 z"
         style="font-weight:100;font-family:Emmett;-inkscape-font-specification:'Emmett, Thin'"
         id="path453" />
      <path
         d="m 68.180029,2.6366975 0.122172,0.015271 0.04581,-0.335973 q 0.106901,-0.8704754 0.30543,-1.1300909 0.213801,-0.27488703 1.007919,-0.53450253 l 0.733032,-0.27488699 q 0.442874,-0.1679865 0.794118,-0.213801 0.19853,0 0.30543,0.091629 0.106901,0.0763575 0.07636,0.1985295 l -0.152715,0.50395949 q -0.122172,0.22907253 -0.183258,0.54977403 -0.04582,0.3207014 -0.04582,0.5803169 0,0.2596155 0.04582,0.519231 l 0.366516,0.015271 q 0.41233,0 0.595588,0.1069005 0.19853,0.091629 0.229073,0.2901585 l -0.09163,0.4734165 Q 72.196433,4.08749 72.16589,4.118033 q -0.01527,0.015272 -0.534502,0.061086 -0.50396,0.045814 -0.595589,0.183258 -0.07636,0.122172 -0.07636,0.7483035 0,0.2901585 0,0.641403 0,0.3512444 0.01527,0.7635749 l 0.06109,0.7177605 q 0.09163,0.733032 0.183258,1.160634 0.106901,0.4123305 0.213801,0.671946 l 0.427602,1.0384621 q 0.07636,0.122172 -0.04581,0.274887 -0.167987,0.213801 -0.687218,0.534502 l -0.274887,0.152715 -0.626131,0.320702 q -0.488688,0.244344 -0.748304,0.244344 -0.381787,0 -0.626131,-0.488688 -0.244344,-0.488688 -0.473417,-1.7256796 -0.07636,-0.4123305 -0.137443,-1.0537335 -0.06109,-0.641403 -0.06109,-1.5118785 V 5.6909975 q 0,-0.244344 0,-0.488688 0,-0.244344 0.01527,-0.488688 0,-0.152715 -0.03054,-0.2290725 -0.01527,-0.061086 -0.122172,-0.183258 -0.09163,-0.1374435 -0.259615,-0.1374435 -0.244344,0 -0.595589,0.2596155 l -0.09163,-0.7483035 -0.01527,-0.274887 q 0.07636,-0.5345025 0.244344,-0.641403 0.183258,-0.122172 0.855204,-0.122172 z"
         style="font-weight:100;font-family:Emmett;-inkscape-font-specification:'Emmett, Thin'"
         id="path455" />
      <path
         d="M 73.173809,3.598802 Q 73.143266,3.4308155 73.112723,3.3086435 73.097451,3.1712 73.097451,3.018485 q 0,-0.366516 0.290159,-0.366516 h 5.345024 q 0.488688,0 0.488688,0.7483035 0,0.1985295 -0.04581,0.5039595 -0.04581,0.30543 -0.06109,0.427602 -0.06109,0.3207015 -0.274887,0.6872175 -0.213801,0.366516 -0.717761,0.9773759 l -0.30543,0.366516 q -0.351244,0.4123305 -0.488688,0.5955885 -0.122172,0.183258 -0.427602,0.641403 l -0.534502,0.8399325 q -0.167986,0.274887 -0.290158,0.5039595 -0.122172,0.213801 -0.152715,0.3817875 -0.04582,0.2290725 0.07636,0.397059 0.122172,0.152715 0.320701,0.152715 0.167987,0 0.335973,-0.045815 0.183258,-0.045815 0.274887,-0.076358 l 0.748304,-0.213801 q 0.61086,-0.2596155 0.748303,-0.2596155 0.106901,0 0.183258,0.076358 0.03054,0.030543 0.152715,0.2596155 l 0.183258,0.6719461 q 0.167987,0.61086 0.167987,0.901018 0,0.259616 -0.229073,0.259616 h -6.032242 q -0.213801,0 -0.213801,-0.488688 l 0.01527,-0.442874 q 0.1069,-0.7788461 0.351244,-1.4966066 0.259616,-0.733032 0.748304,-1.6035075 0.41233,-0.7177605 0.702489,-1.160634 0.244344,-0.3817875 0.473416,-0.6261314 0.534503,-0.580317 0.671946,-0.7788465 0.152715,-0.1985295 0.167987,-0.3207015 0,-0.1374435 -0.09163,-0.244344 -0.09163,-0.1069005 -0.229073,-0.076358 -0.167986,0.015271 -0.30543,0.061086 -0.122172,0.030543 -0.198529,0.045814 l -0.61086,0.1985295 q -0.152715,0.061086 -0.351245,0.1374435 -0.198529,0.061086 -0.290158,0.061086 -0.19853,0 -0.30543,-0.2290725 -0.09163,-0.2290725 -0.213801,-0.885747 z"
         style="font-weight:100;font-family:Emmett;-inkscape-font-specification:'Emmett, Thin'"
         id="path457" />
    </g>
  </g>
</svg>
