<svg id="Capa_1" enable-background="new 0 0 512 512" height="512" viewBox="0 0 512 512" width="512" xmlns="http://www.w3.org/2000/svg"><g><g><g><path d="m266.791 199.534c11.489-20.262 37.229-27.373 57.49-15.884 12.557 7.12 20.056 19.714 21.215 33.085 23.708 8.991 27.568 43.181 6.77 57.377 10.107 13.045 17.771 41.089 9.122 56.342-8.649 15.252-21.016 51.464-37.4 49.488-1.509 25.141-42.953 1.267-62.84-14.459-12.069 5.87-26.726 5.9-39.283-1.22-20.262-11.489-27.373-37.229-15.884-57.49" fill="#f4e74d"/><path d="m119.064 199.534c-11.489-20.262-37.229-27.373-57.49-15.884-12.557 7.12-20.056 19.714-21.215 33.085-23.708 8.991-27.568 43.181-6.77 57.377-10.107 13.045-12.002 31.399-3.353 46.652 8.649 15.252 25.372 23.049 41.756 21.073 1.509 25.141 32.828 39.373 52.715 23.647 12.069 5.87 26.726 5.9 39.283-1.22 20.262-11.489 27.373-37.229 15.884-57.49" fill="#f4e74d"/><path d="m288.738 436.01h-144.7c-19.554 0-25.765-10.27-23.695-21.37 2.13-11.44 5.175-24.024 17.234-32.27l54.83 19.03 94.36-32.76c9.64 13.47 16.46 29.09 19.61 46 2.061 11.1-6.359 21.37-17.639 21.37z" fill="#7a8fa5"/><path d="m144.038 436.01h-47.97c-11.28 0-19.7-10.27-17.64-21.37 3.15-16.91 9.97-32.53 19.61-46l39.54 13.73c-5.23 9.99-9.04 20.83-11.17 32.27-2.07 11.1 6.35 21.37 17.63 21.37z" fill="#6a829a"/><path d="m286.768 368.64-94.36 65.74-59.65-41.56c4.492-39.467 44.17-71.555 83.63-70.26 28.87 6.07 53.79 22.89 70.38 46.08z" fill="#6a829a"/><path d="m216.388 322.56c-38.15 8.02-69.4 34.81-83.63 70.26l-34.72-24.18c21.03-29.41 55.46-48.57 94.37-48.57 8.22 0 16.24.86 23.98 2.49z" fill="#5b778f"/><path d="m235.428 328.33-43.02 106.05-33-81.35c10.62-21.069 29.941-32.11 56.96-30.47 6.57 1.38 12.94 3.33 19.06 5.77z" fill="#fff8e6"/><path d="m216.368 322.56c-21.9 4.61-41.53 15.41-56.96 30.47l-10.02-24.7c13.3-5.32 27.82-8.26 43.02-8.26 8.21 0 16.23.86 23.96 2.49z" fill="#ffeab7"/><circle cx="329.957" cy="199.778" fill="#ffcbbe" r="33.378"/><circle cx="54.852" cy="199.778" fill="#ffcbbe" r="33.378"/><path d="m330.548 199.87c0 66.7-47.28 122.37-110.16 135.3-77.273-13.215-116.951-68.6-116.951-135.3 0-66.71 43.129-123.23 116.951-135.31 62.88 12.93 110.16 68.6 110.16 135.31z" fill="#ffddcf"/><path d="m220.388 335.17c-9.04 1.86-18.4 2.84-27.98 2.84-76.3 0-138.15-61.85-138.15-138.14 0-76.3 61.85-138.15 138.15-138.15 9.58 0 18.94.98 27.98 2.84-62.88 12.94-110.16 68.6-110.16 135.31 0 66.7 47.28 122.36 110.16 135.3z" fill="#ffcbbe"/><path d="m354.448 169.54c0 2.53-.06 5.05-.18 7.55-7.494-.016-14.605-.839-21.394-2.328-2.913-.639-5.173-2.913-5.938-5.795-16.315-61.411-85.354-91.917-134.528-66.407-10.26-5.22-21.3-8.1-32.5-8.82 4.944-36.766 37.377-74.374 87.88-76.53 62.22 22.63 106.66 82.29 106.66 152.33z" fill="#fbf198"/><path d="m247.788 17.21c-37.9 13.78-69.2 41.3-87.88 76.53-43.483-2.901-89.376 26.417-101.955 75.278-.755 2.933-3.052 5.212-6.003 5.893-6.893 1.591-14.013 2.171-21.412 2.179-.12-2.5-.17-5.02-.17-7.55 0-89.49 72.55-162.04 162.04-162.04 19.45 0 38.1 3.43 55.38 9.71z" fill="#f4e74d"/><path d="m473.21 392.04h-5.84c10.2.17 18.42 8.48 18.42 18.72 0 10.35-8.39 18.74-18.74 18.74l-10.02.05c10.35 0 18.74 8.39 18.74 18.74s-8.39 18.74-18.74 18.74h-10.25c10.27.09 18.57 8.44 18.57 18.73 0 10.35-8.39 18.74-18.74 18.74h-79.41c-30.7-35.192-35.2-129.679-1.22-187.88 5.84-8.92 9.99-15.94 12.9-21.26 4.38-8.01 13.18-12.56 22.26-11.52 13.68 1.55 22.76 14.92 19.17 28.21-3.42 12.67-8.9 28.28-17.43 42.53l70.33-.02c10.35 0 18.74 8.39 18.74 18.74s-8.39 18.74-18.74 18.74z" fill="#ffddcf"/><path d="m367.2 504.5c-17.93-.1-37.57-9.96-45.78-24.53h-8.87c-6.63 0-12-5.38-12-12v-79.13c0-6.63 5.37-12 12-12h8.87c20.78-25.79 34.96-45.57 44.56-60.22-23.53 53.04-21.8 136.64 1.22 187.88z" fill="#ffcbbe"/><path d="m321.679 366.28v124.42c0 6.75-5.48 12.22-12.23 12.22h-11.11c-27.831-37.112-25.831-118.6-.12-148.87h11.23c6.75 0 12.23 5.47 12.23 12.23z" fill="#7293df"/><path d="m298.34 502.92h-27.43c-6.63 0-12-5.37-12-12v-124.87c0-6.63 5.37-12 12-12h27.31c-17.451 42.73-16.51 106.67.12 148.87z" fill="#5c85da"/></g><g><g fill="#ffa1ac"><ellipse cx="109.672" cy="228.998" rx="30.834" ry="24.555"/><ellipse cx="276.803" cy="228.998" rx="30.834" ry="24.555"/></g></g></g><g><path d="m499.451 373.299c0-14.469-11.771-26.241-26.243-26.241l-57.785.021c4.801-9.932 8.863-21.007 12.126-33.073 5.059-17.099-7.809-36.029-25.567-37.623-13.951-1.737-26.177 6.68-31.812 19.175-1.922-7.434-4.794-14.413-7.993-20.008 6.531-6.66 10.474-15.618 11.051-25.474.611-10.426-2.609-20.609-8.778-28.402 4.036-6.335 6.385-13.844 6.385-21.896 0-9.344-3.167-18.284-8.963-25.518 1.083-38.199-10.529-75.12-33.285-105.71-2.47-3.326-7.169-4.018-10.492-1.549-3.325 2.47-4.02 7.168-1.549 10.493 19.836 26.707 30.345 58.442 30.397 91.793-4.203-.337-8.373-.957-12.462-1.854-8.945-32.033-30.981-58.757-62.068-72.327-26.834-11.863-55.775-12.136-80.037-.882-24.874-11.356-54.228-10.971-81.162 1.191-30.764 13.629-52.075 40.451-60.949 72.186-3.788.876-7.887 1.458-12.4 1.754.1-85.126 69.387-154.355 154.537-154.355 37.312 0 73.342 13.483 101.451 37.966 3.122 2.72 7.86 2.394 10.581-.729s2.395-7.861-.729-10.581c-30.84-26.862-70.368-41.656-111.303-41.656-95.122-.158-172.28 79.185-169.466 174.261-5.797 7.232-8.963 16.172-8.963 25.517 0 8.363 2.529 16.145 6.855 22.629-5.899 7.839-8.9 17.943-8.172 28.19.686 9.635 4.61 18.401 11.01 24.939-5.533 9.828-7.619 21.371-5.745 32.606.611 3.668 3.788 6.268 7.389 6.268.409 0 .825-.034 1.242-.103 4.086-.681 6.846-4.546 6.164-8.631-1.586-9.514.893-19.344 6.801-26.97 1.267-1.634 1.802-3.719 1.479-5.761-.321-2.042-1.473-3.861-3.18-5.026-6.025-4.113-9.647-10.643-10.198-18.386-.415-5.832 1.01-11.547 3.9-16.217 6.034 4.211 13.248 6.841 21.042 7.274 11.515 39.479 39.329 72.073 75.637 89.981-13.457 8.191-25.108 18.798-34.431 31.172-7.259-3.575-13.702-10.595-14.288-20.354-.124-2.063-1.094-3.985-2.681-5.309-1.589-1.325-3.647-1.932-5.704-1.688-7.719.932-15.631-.797-22.288-4.866-3.536-2.158-8.151-1.045-10.311 2.489-2.16 3.535-1.046 8.15 2.488 10.311 7.46 4.558 16.027 7.062 24.701 7.293 2.76 10.43 9.943 19.359 19.751 24.712-6.873 11.918-11.789 25.048-14.376 38.939-1.401 7.521.591 15.2 5.466 21.067 4.842 5.827 11.966 9.169 19.544 9.169h155.34v47.418c0 10.752 8.748 19.5 19.5 19.5h38.541c8.22 0 15.275-5.057 18.236-12.221 10.839 8.517 25.373 13.797 39.785 13.797h79.134c14.469 0 26.24-11.771 26.24-26.24 0-5.152-1.499-9.958-4.074-14.016 8.588-4.317 14.498-13.207 14.498-23.456 0-5.234-1.546-10.111-4.198-14.209 8.438-4.367 14.223-13.176 14.223-23.315 0-5.926-1.977-11.398-5.303-15.796 6.914-4.731 11.461-12.678 11.461-21.669zm-172.328-15.737c-3.225-6.515-9.925-11.016-17.673-11.016h-32.02c-6.397-6.087-13.362-11.425-20.823-15.976 36.299-17.905 64.108-50.494 75.629-89.98 8.107-.448 15.587-3.272 21.765-7.782 3.05 4.663 4.601 10.442 4.252 16.392-.456 7.775-4.18 14.598-10.217 18.719-1.707 1.166-2.858 2.984-3.18 5.026s.213 4.127 1.479 5.762c6.073 7.838 11.865 23.887 11.231 37.038-7.413 11.114-17.295 24.924-30.443 41.817zm-75.715 8.484v18.089l-42.555 29.645 30.612-75.465c6.985 3.369 13.552 7.464 19.649 12.238-4.672 3.566-7.706 9.175-7.706 15.493zm-59.005 48.382-29.145-71.849c9.42 1.921 19.167 2.932 29.145 2.932 9.979 0 19.725-1.011 29.145-2.932zm158.442-229.904c3.232 4.412 4.989 9.722 4.989 15.254 0 12.235-8.537 22.506-19.965 25.189 1.428-8.175 2.178-16.581 2.178-25.16-.048-5.977-.364-11.452-.941-16.612 4.534.733 9.128 1.175 13.739 1.329zm-321.872 15.254c0-5.525 1.752-10.827 4.975-15.235 4.936-.126 9.498-.523 13.781-1.193-.609 5.393-.859 10.715-.969 16.373-.001.048-.001.096-.001.145 0 8.557.748 16.942 2.171 25.098-11.424-2.686-19.957-12.956-19.957-25.188zm32.786.162c-1.031-38.084 19.93-75.364 55.627-90.852 24.013-10.843 50.116-10.784 71.615.161 2.155 1.097 4.707 1.087 6.856-.026 20.871-10.83 46.564-10.973 70.489-.395 36.378 16.122 57.51 51.09 56.7 91.04 0 72.038-58.606 130.644-130.644 130.644-72.01-.001-130.6-58.571-130.643-130.572zm83.575 138.358 30.618 75.48-67.199-46.814c9.85-11.923 22.264-21.764 36.581-28.666zm-57.272 86.453c-2.016-2.426-2.839-5.61-2.257-8.734 2.467-13.241 7.341-25.698 14.211-36.858l70.836 49.347h-74.784c-3.151 0-5.994-1.334-8.006-3.755zm125.895 3.755 37.451-26.09v26.09zm100.221 62.189c0 2.607-2.121 4.729-4.729 4.729h-38.541c-2.481 0-4.5-2.019-4.5-4.5v-124.878c0-2.481 2.019-4.5 4.5-4.5h38.541c2.607 0 4.729 2.121 4.729 4.729zm132.425 6.305h-79.134c-14.9 0-30.95-7.956-38.292-18.758v-99.089c32.2-40.165 48.365-65.736 56.279-80.189 2.932-5.354 8.758-8.365 14.83-7.676 8.877.797 15.311 10.257 12.781 18.803-4.207 15.561-9.801 29.235-16.626 40.642-1.387 2.317-1.421 5.202-.088 7.551 1.332 2.349 3.823 3.8 6.523 3.8.003 0 70.333-.025 70.333-.025 6.198 0 11.24 5.042 11.24 11.241 0 6.198-5.042 11.24-11.24 11.24h-42.369c-4.143 0-7.5 3.358-7.5 7.5s3.357 7.5 7.5 7.5h36.531c6.05.17 10.922 5.134 10.922 11.225 0 6.198-5.042 11.24-11.24 11.24l-45.593.043c-4.143 0-7.5 3.358-7.5 7.5s3.357 7.5 7.5 7.5h35.567c6.198 0 11.24 5.042 11.24 11.241 0 6.198-5.042 11.24-11.24 11.24l-39.955-.009c-4.143 0-7.5 3.358-7.5 7.5s3.357 7.5 7.5 7.5l29.705.009c6.118.094 11.067 5.092 11.067 11.231 0 6.197-5.042 11.24-11.241 11.24z"/><path d="m127.642 185.559c-4.143 0-7.5 3.358-7.5 7.5v12c0 4.142 3.357 7.5 7.5 7.5s7.5-3.358 7.5-7.5v-12c0-4.142-3.358-7.5-7.5-7.5z"/><path d="m216.185 209.914c2.722-3.123 2.396-7.86-.727-10.582-3.125-2.721-7.861-2.396-10.582.727-2.938 3.372-7.181 5.306-11.64 5.306s-8.701-1.934-11.64-5.306c-2.723-3.123-7.46-3.447-10.582-.727-3.122 2.722-3.448 7.459-.727 10.582 5.788 6.642 14.152 10.451 22.948 10.451s17.162-3.81 22.95-10.451z"/><path d="m247.242 212.224c4.143 0 7.5-3.358 7.5-7.5 0-3.532 2.874-6.406 6.406-6.406s6.406 2.874 6.406 6.406c0 4.142 3.357 7.5 7.5 7.5s7.5-3.358 7.5-7.5c0-11.803-9.603-21.406-21.406-21.406-11.804 0-21.406 9.603-21.406 21.406 0 4.142 3.358 7.5 7.5 7.5z"/></g></g></svg>