<svg id="Capa_1" enable-background="new 0 0 512 512" height="512" viewBox="0 0 512 512" width="512" xmlns="http://www.w3.org/2000/svg"><g><g><path d="m95.134 417.097c-17.366-17.366-39.911-26.397-62.664-27.093-13.73-.42-25.114 10.964-24.694 24.694.696 22.753 9.727 45.298 27.093 62.665 23.15 23.15 55.502 31.487 85.281 25.015 6.472-29.779-1.866-62.131-25.016-85.281z" fill="#71d7b6"/><path d="m207.163 390.027c-22.526.85-44.801 9.874-61.997 27.07-23.15 23.15-31.487 55.502-25.015 85.281 29.78 6.472 62.132-1.866 85.281-25.015 17.197-17.197 26.22-39.471 27.07-61.997.538-14.248-11.091-25.877-25.339-25.339z" fill="#71d7b6"/><g fill="#fbb0bb"><path d="m323.478 31.53c-32.036-32.036-83.986-32.043-116.03 0-16.022 16.022-24.025 37.018-24.025 58.008 0 21.004 8.018 42 24.032 58.015l39.892 39.891 24.768-24.768-39.891-39.892c-18.329-18.329-18.329-48.15 0-66.479 18.336-18.336 48.157-18.336 66.486-.007l39.892 39.891 24.768-24.768z"/><path d="m487.475 55.627c-22.348-22.348-58.581-22.348-80.929 0l-32.413 32.413 24.991 24.546 32.191-32.191c8.655-8.654 22.737-8.654 31.392 0 8.654 8.654 8.654 22.737 0 31.392l-32.191 32.191 24.546 24.991 32.413-32.413c22.348-22.348 22.348-58.581 0-80.929z"/><path d="m309.248 212.059-128.103 45.737 7.366 35.58 135.733-8.884z"/></g><path d="m120.15 502.379c15.192 3.302 31.051 2.74 46.019-1.667 17.025-21.375 26.595-48.086 26.595-76.324 0-10.84-1.416-21.499-4.153-31.75-15.919 3.888-31.012 12.026-43.446 24.459-23.15 23.15-31.487 55.502-25.015 85.282z" fill="#31c897"/><path d="m51.688 392.639c-2.737 10.25-4.152 20.909-4.152 31.749 0 28.238 9.57 54.95 26.595 76.324 14.968 4.407 30.827 4.969 46.019 1.667 6.472-29.78-1.865-62.131-25.015-85.282-12.435-12.434-27.528-20.57-43.447-24.458z" fill="#31c897"/><path d="m137.611 360.919c-9.412-10.006-25.511-10.006-34.923 0-15.597 16.581-25.153 38.908-25.153 63.469 0 32.739 16.981 61.511 42.615 77.992 25.634-16.481 42.615-45.253 42.615-77.992-.001-24.561-9.557-46.889-25.154-63.469z" fill="#71d7b6"/><g fill="#fb8999"><path d="m212.673 152.771 34.673 34.673 24.768-24.769-38.443-38.443-5.876 5.875c-6.661 6.664-11.716 14.388-15.122 22.664z"/><path d="m363.369 71.421-34.686-34.686c-8.371 3.445-16.057 8.544-22.649 15.137l-5.875 5.875 38.443 38.442z"/></g><g fill="#fb8999"><path d="m487.475 136.556c5.69-5.69 9.923-12.283 12.716-19.315l-31.012-21.551c.104 5.818-2.043 11.668-6.472 16.098l-32.191 32.19 24.546 24.992z"/><path d="m439.659 75.176-31.009-21.549c-.714.646-1.415 1.312-2.103 2l-32.414 32.413 24.991 24.545 32.191-32.191c2.431-2.43 5.297-4.153 8.344-5.218z"/></g><path d="m268.081 288.168 56.163-3.676-14.996-72.433-75.359 26.906z" fill="#fb8999"/><path d="m484.767 143.055-107.159-74.466c-15.664-10.885-36.874-8.991-50.362 4.497l-78.236 78.236c-13.488 13.488-15.381 34.698-4.496 50.362l74.466 107.159c14.649 21.08 44.802 23.773 62.954 5.621l108.454-108.454c18.152-18.153 15.46-48.306-5.621-62.955z" fill="#c4a5ed"/><path d="m210.101 270.354c-4.477-21.625-25.638-35.527-47.263-31.05-6.29 1.302-10.334 7.457-9.031 13.747l11.497 55.534c1.302 6.29 7.457 10.334 13.747 9.031 21.626-4.476 35.527-25.636 31.05-47.262z" fill="#c4a5ed"/><path d="m417.639 254.617c-72.665 0-131.572-58.907-131.572-131.572 0-3.059.113-6.091.319-9.098l-37.375 37.375c-13.488 13.488-15.382 34.698-4.497 50.362l74.467 107.159c14.649 21.081 44.802 23.773 62.954 5.621l62.603-62.603c-8.684 1.803-17.68 2.756-26.899 2.756z" fill="#ad86df"/></g><g><path d="m302.686 208.019c-7.965 7.965-7.966 20.856 0 28.822 2.93 2.929 7.679 2.929 10.609 0 2.93-2.93 2.929-7.679 0-10.609-2.102-2.101-2.101-5.501 0-7.603 2.102-2.101 5.502-2.1 7.603 0 2.929 2.93 7.679 2.93 10.609 0 2.93-2.929 2.93-7.679 0-10.609-7.963-7.965-20.855-7.967-28.821-.001z"/><path d="m384.085 126.62c-7.964 7.964-7.966 20.855 0 28.821 2.93 2.929 7.679 2.929 10.609 0 2.929-2.93 2.929-7.679 0-10.609-2.101-2.1-2.102-5.502 0-7.603 2.101-2.101 5.501-2.101 7.603 0 2.929 2.93 7.679 2.93 10.609 0 2.93-2.929 2.93-7.679 0-10.609-7.964-7.965-20.856-7.965-28.821 0z"/><path d="m377.585 175.23c-4.133.283-7.254 3.864-6.97 7.998.211 3.07-.911 6.074-3.079 8.241-2.167 2.167-5.165 3.292-8.242 3.079-4.131-.282-7.714 2.837-7.998 6.97s2.837 7.714 6.97 7.998c7.383.509 14.636-2.196 19.878-7.439 5.235-5.235 7.946-12.48 7.438-19.877-.283-4.133-3.865-7.251-7.997-6.97z"/><path d="m120.14 510.006c6.635 1.332 13.3 1.994 19.91 1.994 26.269 0 51.651-10.321 70.695-29.365 17.919-17.918 28.312-41.724 29.268-67.032.702-18.593-14.532-33.829-33.124-33.125-14.509.548-28.697 4.25-41.561 10.79-4.517-13.866-12.038-26.683-22.258-37.548-12.365-13.145-33.496-13.143-45.859 0-10.22 10.864-17.741 23.681-22.258 37.547-13.08-6.65-27.517-10.362-42.283-10.813-18.036-.551-32.979 14.391-32.428 32.428.783 25.585 11.186 49.647 29.293 67.753 19.046 19.045 44.423 29.366 70.695 29.365 6.608 0 13.276-.662 19.91-1.994zm48.829-101.675c11.748-6.61 24.952-10.348 38.486-10.86 9.917-.364 17.939 7.672 17.565 17.565-.813 21.516-9.65 41.755-24.884 56.99-16.417 16.416-38.408 25.204-61.038 24.962 20.312-19.5 31.168-45.009 31.168-72.645-.001-5.47-.557-11.5-1.297-16.012zm-153.731 6.092c-.288-9.407 7.537-17.266 16.973-16.973 13.754.42 27.171 4.166 39.1 10.88-.771 4.734-1.297 10.638-1.297 16.012 0 5.856.522 11.771 1.55 17.58.723 4.079 4.621 6.802 8.695 6.078 4.08-.723 6.801-4.615 6.079-8.695-.876-4.947-1.321-9.982-1.321-14.963 0-20.445 7.455-41.688 23.121-58.342 6.408-6.812 17.494-6.919 24.003 0 15.107 16.061 23.121 36.988 23.121 58.342 0 26.619-12.374 52.401-35.12 68.916-10.184-7.406-18.745-17.144-24.781-28.219-1.983-3.638-6.539-4.98-10.177-2.996-3.638 1.983-4.979 6.54-2.996 10.177 5.131 9.411 12.001 18.123 19.037 24.767-22.672.253-44.657-8.537-61.082-24.962-15.394-15.394-24.239-35.851-24.905-57.602z"/><path d="m492.851 50.196c-25.301-25.301-66.253-25.304-91.555 0l-15.082 15.081-4.278-2.973c-7.682-5.338-16.473-8.093-25.28-8.372l-27.839-27.839c-15.599-15.6-36.323-24.862-58.354-26.082-4.125-.229-7.676 2.938-7.905 7.075-.23 4.137 2.939 7.676 7.075 7.905 18.339 1.016 35.589 8.726 48.574 21.711l20.27 20.271c-10.821 4.083-16.595 10.906-17.073 11.257l-17.363-17.363c-21.257-21.258-55.823-21.279-77.109.007-21.279 21.278-21.28 55.823 0 77.102l17.363 17.363c-.319.391-7.235 6.445-11.257 17.073l-20.271-20.27c-29.133-29.134-29.15-76.295-.007-105.44 8.514-8.514 18.636-14.675 30.084-18.312 3.949-1.254 6.133-5.472 4.879-9.421s-5.474-6.133-9.421-4.879c-13.759 4.371-25.922 11.773-36.151 22.002-34.995 34.996-35.002 91.648.007 126.657l27.839 27.839c.28 8.807 3.034 17.598 8.372 25.281l13.055 18.787-49.574 17.7c-10.791-9.236-25.581-13.581-40.536-10.485-10.332 2.139-16.997 12.285-14.858 22.617l11.5 55.546c2.136 10.321 12.278 17.001 22.617 14.858 14.954-3.096 26.803-12.955 33.041-25.717l85.698-5.609 13.541 19.485c17.337 24.947 52.993 28.086 74.433 6.646l108.478-108.478c19.792-19.791 18.812-52.021-1.836-70.604 24.141-25.321 23.794-65.548-1.077-90.419zm-315.318 260.006c-2.226.462-4.421-.977-4.883-3.208l-11.5-55.546c-.463-2.236.972-4.421 3.208-4.883 17.782-3.684 34.813 7.866 38.407 25.232 3.628 17.535-7.698 34.776-25.232 38.405zm40.599-26.356c.584-5.06.314-10.314-.675-15.088 0-.001 0-.002-.001-.004 0-.002-.001-.003-.001-.005-.997-4.816-2.815-9.677-5.371-14.115l48.211-17.213 29.023 41.765zm193.772-223.041c19.437-19.437 50.898-19.44 70.338 0 19.392 19.392 19.392 50.945 0 70.337l-.511.511c-1.366-.95 4.71 3.273-16.715-11.615l3.061-3.061c11.595-11.594 11.596-30.413 0-42.008-11.582-11.582-30.426-11.582-42.007 0l-10.622 10.622-16.715-11.615zm16.061 33.486 8.713-8.713c5.732-5.732 15.058-5.732 20.79 0 5.732 5.733 5.731 15.058 0 20.79l-4.971 4.97zm-190.423 23.077c-15.415-15.416-15.416-40.468 0-55.884s40.469-15.43 55.892-.007l17.363 17.363-55.892 55.892zm247.614 83.244-108.478 108.478c-14.864 14.863-39.532 12.629-51.504-4.599l-74.483-107.182c-8.846-12.729-7.245-29.894 3.641-40.788 0 0 78.427-78.427 78.253-78.253.011-.011.023-.021.035-.033 10.78-10.751 27.894-12.545 40.754-3.609l107.183 74.483c17.261 11.994 19.434 36.668 4.599 51.503z"/></g></g></svg>